<svg xmlns="http://www.w3.org/2000/svg" version="1.1" xmlns:xlink="http://www.w3.org/1999/xlink" width="512" height="512" x="0" y="0" viewBox="0 0 512 512" style="enable-background:new 0 0 512 512" xml:space="preserve" class=""><g><rect width="424.8" height="424.8" x="43.6" y="43.6" fill="#163E64" rx="212.4" opacity="1" data-original="#1e2e33" class=""></rect><g fill="#fff"><path d="M351.53 170.5H160.47a20 20 0 0 0-16.5 8.71l95.52 67.73a28.59 28.59 0 0 0 33 0L368 179.21a20 20 0 0 0-16.47-8.71z" fill="#ffffff" opacity="1" data-original="#ffffff" class=""></path><path d="M280.76 258.58a42.86 42.86 0 0 1-49.53 0l-90.76-64.35v127.26a20 20 0 0 0 20 20h191.06a20 20 0 0 0 20-20V194.23z" fill="#ffffff" opacity="1" data-original="#ffffff" class=""></path></g></g></svg>